HIERARCHY
ROOT Hips
{
 OFFSET 0.000000 0.000000 0.000000
 CHANNELS 6 Xposition Yposition Zposition Yrotation Xrotation Zrotation
 JOINT Chest
 {
  OFFSET 0.000000 9.585900 0.002600
  CHANNELS 3 Yrotation Xrotation Zrotation
  JOINT Chest2
  {
   OFFSET 0.000000 9.601200 -0.005300
   CHANNELS 3 Yrotation Xrotation Zrotation
   JOINT Chest3
   {
    OFFSET 0.000000 9.561800 0.000000
    CHANNELS 3 Yrotation Xrotation Zrotation
    JOINT Chest4
    {
     OFFSET 0.000000 9.552100 0.000000
     CHANNELS 3 Yrotation Xrotation Zrotation
     JOINT Neck
     {
      OFFSET 0.000000 14.453000 0.000000
      CHANNELS 3 Yrotation Xrotation Zrotation
      JOINT Head
      {
       OFFSET 0.000000 8.936500 -0.011300
       CHANNELS 3 Yrotation Xrotation Zrotation
       End Site
       {
        OFFSET 0.000000 17.073600 -0.006000
       }
      }
     }
     JOINT RightCollar
     {
      OFFSET -2.921100 9.558500 0.000000
      CHANNELS 3 Yrotation Xrotation Zrotation
      JOINT RightShoulder
      {
       OFFSET -13.519700 0.000000 0.000000
       CHANNELS 3 Yrotation Xrotation Zrotation
       JOINT RightElbow
       {
        OFFSET 0.000000 -29.696600 0.000000
        CHANNELS 3 Yrotation Xrotation Zrotation
        JOINT RightWrist
        {
         OFFSET 0.000000 -24.004700 0.000000
         CHANNELS 3 Yrotation Xrotation Zrotation
         End Site
         {
          OFFSET 0.000000 -17.728500 0.000000
         }
        }
       }
      }
     }
     JOINT LeftCollar
     {
      OFFSET 2.921100 9.558500 0.000000
      CHANNELS 3 Yrotation Xrotation Zrotation
      JOINT LeftShoulder
      {
       OFFSET 13.519700 0.000000 0.000000
       CHANNELS 3 Yrotation Xrotation Zrotation
       JOINT LeftElbow
       {
        OFFSET 0.000000 -29.696600 0.000000
        CHANNELS 3 Yrotation Xrotation Zrotation
        JOINT LeftWrist
        {
         OFFSET 0.000000 -24.004700 0.000000
         CHANNELS 3 Yrotation Xrotation Zrotation
         End Site
         {
          OFFSET 0.000000 -17.728500 0.000000
         }
        }
       }
      }
     }
    }
   }
  }
 }
 JOINT RightHip
 {
  OFFSET -7.771700 -0.012900 -0.001300
  CHANNELS 3 Yrotation Xrotation Zrotation
  JOINT RightKnee
  {
   OFFSET 0.000000 -40.869800 0.001200
   CHANNELS 3 Yrotation Xrotation Zrotation
   JOINT RightAnkle
   {
    OFFSET 0.000000 -39.717900 0.002100
    CHANNELS 3 Yrotation Xrotation Zrotation
    JOINT RightToe
    {
     OFFSET 0.000000 -4.965400 11.033500
     CHANNELS 3 Yrotation Xrotation Zrotation
     End Site
     {
      OFFSET 0.000000 -1.423100 5.872300
     }
    }
   }
  }
 }
 JOINT LeftHip
 {
  OFFSET 7.771700 -0.012900 -0.001300
  CHANNELS 3 Yrotation Xrotation Zrotation
  JOINT LeftKnee
  {
   OFFSET 0.000000 -40.869800 0.001200
   CHANNELS 3 Yrotation Xrotation Zrotation
   JOINT LeftAnkle
   {
    OFFSET 0.000000 -39.717900 0.002100
    CHANNELS 3 Yrotation Xrotation Zrotation
    JOINT LeftToe
    {
     OFFSET 0.000000 -4.965400 11.033500
     CHANNELS 3 Yrotation Xrotation Zrotation
     End Site
     {
      OFFSET 0.000000 -1.423100 5.872300
     }
    }
   }
  }
 }
}
MOTION
Frames: 16
Frame Time: 0.008333
-115.426399 58.004017 100.571538 177.948755 -31.849434 -0.803490 3.540135 20.905625 3.851245 0.423243 2.830846 0.417502 0.609374 4.556785 0.717912 2.947695 17.869102 3.124881 -1.046058 12.958500 -1.070725 -1.502640 -11.707392 -1.668001 -0.115303 -0.682009 0.429756 -23.401674 -22.341651 -3.486566 -144.140657 -31.810783 151.867014 6.853559 16.849536 48.513962 -8.542047 -2.680466 -3.825133 34.639151 -19.525118 -8.467696 93.123346 -25.456741 -83.538008 21.435729 -17.594654 22.767318 6.318868 -43.303982 -6.617661 -6.666364 68.080022 -6.331268 5.987077 23.521345 3.482030 -0.397323 -16.529412 3.049963 -5.354566 -41.003675 0.004367 24.971260 64.394667 22.958572 -15.950539 6.786046 -2.147043 -0.137141 -0.146028 -0.075227
-115.419505 58.002881 100.567248 177.947229 -31.834979 -0.776145 3.565717 20.910555 3.827563 0.429096 2.832998 0.414520 0.613228 4.557358 0.712572 2.941627 17.858267 3.125434 -1.062543 12.961007 -1.100403 -1.609307 -11.738282 -1.690601 -0.073277 -0.720125 0.412051 -23.326773 -22.380547 -3.568388 -144.115802 -31.848431 151.803588 6.869177 16.831004 48.441298 -8.533216 -2.695638 -3.832399 34.652666 -19.567312 -8.504835 93.098335 -25.452226 -83.573668 21.438977 -17.578631 22.739397 6.334017 -43.324326 -6.634882 -6.679675 68.096152 -6.359089 5.995943 23.515506 3.482087 -0.401815 -16.534273 3.053186 -5.365507 -41.018214 -0.012947 24.988047 64.395299 22.961996 -15.938554 6.780522 -2.153342 -0.141617 -0.141038 -0.074723
-115.413492 58.002162 100.562697 177.951042 -31.824523 -0.742871 3.585974 20.918731 3.796671 0.433702 2.837669 0.409365 0.661718 4.587447 0.691176 2.925624 17.833777 3.127099 -1.097216 12.967290 -1.159448 -1.708248 -11.791153 -1.624623 -0.057803 -0.780746 0.419992 -23.248984 -22.419030 -3.654000 -144.098921 -31.890144 151.741189 6.833154 16.843910 48.517076 -8.562040 -2.724209 -3.800957 34.660320 -19.589500 -8.537651 93.092598 -25.444528 -83.624903 21.439513 -17.565642 22.713093 6.361747 -43.339682 -6.672731 -6.662063 68.121175 -6.348786 5.990574 23.496113 3.476813 -0.412615 -16.531149 3.060061 -5.372511 -41.027502 -0.043475 25.017223 64.389918 22.972374 -15.925169 6.776519 -2.151839 -0.151771 -0.137371 -0.078658
-115.404870 58.001852 100.558307 177.955965 -31.815745 -0.723719 3.651098 20.948832 3.783449 0.383496 2.807130 0.420435 0.675438 4.595785 0.683694 2.997920 17.876649 3.072585 -1.164532 12.919257 -1.112793 -1.750154 -11.815927 -1.584773 -0.081562 -0.877596 0.471548 -23.171594 -22.456932 -3.741001 -144.088357 -31.936135 151.681255 6.822693 16.849196 48.546063 -8.649865 -2.778204 -3.700041 34.684378 -19.595312 -8.588788 93.091651 -25.448557 -83.677382 21.440131 -17.557704 22.696935 6.375666 -43.352262 -6.680317 -6.667934 68.140996 -6.368984 5.974299 23.476843 3.475177 -0.413354 -16.526765 3.064315 -5.366350 -41.036353 -0.068467 25.017076 64.391846 22.978882 -15.923875 6.767989 -2.161449 -0.138855 -0.131081 -0.077119
-115.397665 58.002563 100.552975 177.963744 -31.814892 -0.696743 3.662609 20.963320 3.754207 0.375657 2.802814 0.420729 0.667844 4.591142 0.685958 3.059872 17.913028 3.026851 -1.213597 12.892530 -1.094941 -1.841412 -11.853560 -1.574123 -0.113375 -0.938429 0.518980 -23.054874 -22.516775 -3.846189 -144.077599 -31.985012 151.620390 6.824267 16.847278 48.546720 -8.680681 -2.810801 -3.663406 34.665902 -19.612345 -8.617260 93.091890 -25.466940 -83.729502 21.443032 -17.554066 22.696818 6.398887 -43.353137 -6.712135 -6.668034 68.163225 -6.370085 5.962675 23.446634 3.468039 -0.402582 -16.515914 3.062803 -5.354998 -41.030067 -0.110291 25.017037 64.381824 22.985495 -15.920484 6.754824 -2.171783 -0.148896 -0.117724 -0.074374
-115.389966 58.002899 100.549113 177.971880 -31.805577 -0.673968 3.655245 20.960342 3.726164 0.446702 2.841275 0.400287 0.634221 4.574165 0.693245 3.080478 17.917807 3.009595 -1.253599 12.870392 -1.078565 -1.934542 -11.888561 -1.576184 -0.085512 -1.007777 0.506296 -23.003388 -22.542994 -3.913557 -144.059720 -32.038213 151.556587 6.827865 16.842580 48.540765 -8.659246 -2.827334 -3.689709 34.591438 -19.651369 -8.616999 93.094972 -25.493917 -83.784487 21.421433 -17.551040 22.718306 6.424362 -43.360533 -6.741278 -6.703215 68.176052 -6.402865 5.965527 23.425220 3.465378 -0.401443 -16.507515 3.063239 -5.339737 -41.034649 -0.146459 25.015239 64.371939 22.990200 -15.924508 6.749821 -2.174030 -0.148211 -0.111484 -0.078440
-115.383333 58.004439 100.544051 177.997113 -31.806173 -0.655689 3.662713 20.979382 3.699319 0.448858 2.841033 0.396801 0.642169 4.581109 0.688874 3.096741 17.920859 2.991278 -1.295500 12.852418 -1.075904 -2.015043 -11.921872 -1.554051 -0.057325 -1.072794 0.489192 -22.957531 -22.569553 -3.974965 -144.034498 -32.096541 151.490369 6.830982 16.835882 48.521708 -8.683883 -2.847309 -3.662396 34.571076 -19.657041 -8.645696 93.093757 -25.524568 -83.819134 21.457465 -17.547463 22.728528 6.443251 -43.357991 -6.775678 -6.696119 68.204364 -6.398989 5.945871 23.384744 3.466252 -0.398564 -16.492903 3.062762 -5.333618 -41.033286 -0.189109 25.012651 64.365381 22.993161 -15.926010 6.751832 -2.177389 -0.146030 -0.111289 -0.078118
-115.376050 58.005462 100.540582 178.008865 -31.798277 -0.637952 3.720965 20.998774 3.683767 0.397930 2.819190 0.408081 0.667304 4.595138 0.678157 3.111166 17.923154 2.971890 -1.338844 12.839412 -1.087581 -2.098177 -11.955918 -1.518943 -0.041899 -1.129682 0.485744 -22.893457 -22.605931 -4.048948 -144.009095 -32.158909 151.422880 6.829687 16.832727 48.487609 -8.724432 -2.866266 -3.613960 34.586071 -19.635710 -8.715667 93.086110 -25.573782 -83.868278 21.497894 -17.542634 22.744259 6.466717 -43.362981 -6.802250 -6.724066 68.215967 -6.424417 5.943954 23.366576 3.466766 -0.401590 -16.486930 3.063403 -5.329118 -41.037225 -0.219568 25.010111 64.357713 22.995854 -15.923477 6.745902 -2.183517 -0.145565 -0.105618 -0.077610
-115.368716 58.006419 100.537841 178.016504 -31.788245 -0.623226 3.745594 21.001968 3.667470 0.381448 2.812922 0.411255 0.720821 4.619202 0.651739 3.100903 17.911569 2.969694 -1.378174 12.822782 -1.071679 -2.181654 -11.984551 -1.512838 -0.024435 -1.183752 0.484615 -22.827449 -22.641589 -4.125458 -143.987809 -32.224765 151.354972 6.827225 16.835923 48.442391 -8.701702 -2.869233 -3.634887 34.532369 -19.644734 -8.755522 93.083413 -25.545761 -83.946175 21.403329 -17.547458 22.769253 6.482965 -43.368011 -6.822171 -6.736391 68.225602 -6.434135 5.941868 23.330453 3.464083 -0.405914 -16.463535 3.063752 -5.331302 -41.041656 -0.234207 25.009655 64.347160 22.990882 -15.926696 6.742278 -2.191015 -0.142288 -0.100452 -0.073631
-115.362790 58.008215 100.534175 178.028873 -31.787686 -0.608419 3.764065 21.012003 3.647915 0.386444 2.819510 0.409305 0.732775 4.620109 0.640435 3.105732 17.909102 2.955424 -1.409325 12.805886 -1.026695 -2.270369 -12.011558 -1.534583 -0.006231 -1.231441 0.485916 -22.756606 -22.677268 -4.201664 -143.971537 -32.293621 151.288004 6.832783 16.814241 48.362860 -8.696306 -2.868414 -3.632217 34.500064 -19.642117 -8.795214 93.068215 -25.550347 -83.996516 21.419086 -17.547553 22.764030 6.497075 -43.366694 -6.847083 -6.723204 68.242693 -6.417356 5.926694 23.305998 3.458741 -0.401300 -16.454435 3.061478 -5.338863 -41.037175 -0.249743 25.008728 64.340376 22.981044 -15.938927 6.736985 -2.194565 -0.143308 -0.097592 -0.071660
-115.357326 58.009755 100.531358 178.038340 -31.784734 -0.596817 3.784385 21.017877 3.632230 0.391871 2.820479 0.405748 0.733888 4.619675 0.635343 3.119228 17.910118 2.935656 -1.451627 12.795574 -1.026619 -2.362612 -12.040312 -1.512987 0.012687 -1.272671 0.487836 -22.681195 -22.713048 -4.278146 -143.962934 -32.366773 151.223234 6.834701 16.791307 48.283655 -8.695620 -2.859223 -3.620300 34.477145 -19.633764 -8.845082 93.052285 -25.585799 -84.045191 21.474842 -17.533989 22.756517 6.513593 -43.368467 -6.866404 -6.726025 68.253572 -6.417169 5.918168 23.294269 3.458348 -0.399741 -16.452389 3.060023 -5.373617 -41.035973 -0.242873 25.021913 64.338079 22.970664 -15.943387 6.727210 -2.205535 -0.135988 -0.091551 -0.067294
-115.353998 58.009866 100.531107 178.053921 -31.766662 -0.584662 3.797555 21.007866 3.611966 0.392561 2.821603 0.401586 0.739865 4.616767 0.631114 3.133529 17.908426 2.917497 -1.501966 12.788169 -1.028522 -2.458450 -12.067897 -1.491788 0.028128 -1.307806 0.489163 -22.604220 -22.748669 -4.355490 -143.958683 -32.444932 151.163145 6.836669 16.847960 48.274721 -8.706202 -2.847050 -3.599073 34.451192 -19.638735 -8.863463 93.032570 -25.536782 -84.061713 21.465145 -17.531166 22.745600 6.525498 -43.385271 -6.894830 -6.726695 68.262216 -6.415748 5.918453 23.280947 3.460836 -0.399793 -16.446496 3.056394 -5.391976 -41.052329 -0.255472 24.996330 64.329561 22.940674 -15.940129 6.736996 -2.220990 -0.125421 -0.094309 -0.061908
-115.353665 58.009782 100.531376 178.066312 -31.747142 -0.562282 3.808408 20.993445 3.582825 0.396589 2.826008 0.397511 0.742162 4.608794 0.627507 3.147354 17.904812 2.901007 -1.550093 12.784354 -1.032860 -2.567704 -12.094333 -1.470233 0.040093 -1.335201 0.488674 -22.527929 -22.784098 -4.431455 -143.953509 -32.526970 151.110404 6.843020 16.851734 48.231708 -8.737668 -2.836620 -3.559340 34.479147 -19.581434 -8.959962 92.995630 -25.540290 -84.115389 21.453911 -17.531119 22.742771 6.529929 -43.407931 -6.925603 -6.702666 68.274041 -6.404468 5.916208 23.274856 3.464093 -0.394995 -16.447084 3.051835 -5.401520 -41.070981 -0.279116 25.003213 64.323142 22.932790 -15.939274 6.737171 -2.224327 -0.121696 -0.092392 -0.059210
-115.351660 58.010897 100.530088 178.070703 -31.741112 -0.554680 3.816007 20.988511 3.573239 0.418065 2.827816 0.389607 0.738270 4.602822 0.624971 3.159911 17.900444 2.885694 -1.600508 12.778309 -1.041349 -2.678455 -12.114943 -1.452162 0.055063 -1.355559 0.485596 -22.455945 -22.819030 -4.505148 -143.951962 -32.609219 151.065973 6.835310 16.813291 48.134446 -8.733801 -2.807357 -3.553448 34.469371 -19.542978 -9.040732 92.970825 -25.594718 -84.184332 21.481370 -17.520897 22.775778 6.527014 -43.413401 -6.930913 -6.649770 68.282495 -6.365904 5.918157 23.258218 3.482427 -0.408424 -16.438936 3.043140 -5.408682 -41.075831 -0.285581 25.001944 64.320495 22.925690 -15.938541 6.738773 -2.227005 -0.119545 -0.093851 -0.057933
-115.352390 58.011735 100.529311 178.077838 -31.731548 -0.540811 3.815333 20.979644 3.554556 0.431725 2.826483 0.383312 0.728074 4.601773 0.628487 3.181009 17.893024 2.861776 -1.679911 12.759289 -1.087574 -2.768554 -12.119316 -1.409345 0.062834 -1.365016 0.492907 -22.374160 -22.860438 -4.585178 -143.956315 -32.688274 151.030951 6.871008 16.866390 48.175173 -8.724313 -2.772112 -3.545509 34.446374 -19.513067 -9.105851 92.957602 -25.632093 -84.241393 21.500879 -17.509430 22.826692 6.535293 -43.422068 -6.952822 -6.647037 68.289373 -6.368396 5.923643 23.247460 3.495209 -0.407462 -16.435201 3.032997 -5.411713 -41.085095 -0.302895 24.986887 64.317333 22.903730 -15.932217 6.745884 -2.228076 -0.116497 -0.096891 -0.056795
-115.356881 58.012554 100.528650 178.083515 -31.719740 -0.510542 3.823709 20.969197 3.520589 0.452270 2.821343 0.372553 0.699102 4.603679 0.641022 3.194454 17.880976 2.838327 -1.737738 12.751700 -1.097590 -2.874357 -12.133236 -1.404613 0.051472 -1.357919 0.521448 -22.261685 -22.915134 -4.680744 -143.958957 -32.763619 151.005257 6.898989 16.893687 48.174762 -8.658390 -2.701333 -3.567870 34.366672 -19.513697 -9.166057 92.936376 -25.652364 -84.299982 21.502305 -17.513213 22.878456 6.542694 -43.433345 -6.992830 -6.625245 68.299044 -6.359160 5.929643 23.232695 3.504722 -0.405245 -16.428346 3.022146 -5.420466 -41.092772 -0.338282 25.005244 64.303544 22.905181 -15.924541 6.746345 -2.230088 -0.117771 -0.093326 -0.058064
